# xmcd CD database file
#
# Track frame offsets:
#	150
#	19173
#	38407
#	59138
#	86052
#	110390
#	175264
#	208527
#	235478
#	253990
#	271760
#
# Disc length: 4397 seconds
#
# Revision: 0
# Processed by: cddbd v1.5.1PL0 Copyright (c) Steve Scherf et al.
# Submitted via: CDex 1.51
#
DISCID=98112b0b
DTITLE=Steepwater Band - LIVE...Half In The Bag
DYEAR=1900
DGENRE=Country
TTITLE0=Dimples
TTITLE1=Preachin' Blues
TTITLE2=Addicted
TTITLE3=Send Me Your Pillow
TTITLE4=Rain
TTITLE5=Mean Ol' World
TTITLE6=Dirty Ol' Blues
TTITLE7=Down In Chicago
TTITLE8=Feelin' In The Air
TTITLE9=It Takes A Lot To Laugh
TTITLE10=Light Up or Leave Me Alone
EXTD=
EXTT0=
EXTT1=
EXTT2=
EXTT3=
EXTT4=
EXTT5=
EXTT6=
EXTT7=
EXTT8=
EXTT9=
EXTT10=
PLAYORDER=
